# Blender v2.79 (sub 0) OBJ File: 'Schale 1.0.blend'
# www.blender.org
mtllib Schale 1.0.mtl
o Sphere
v 0.191342 0.518594 -1.038302
v 0.178395 0.325462 -0.896853
v 0.170884 0.177806 -0.859092
v 0.147103 0.020960 -0.739534
v 0.108207 -0.117939 -0.543991
v 0.070905 -0.210195 -0.356463
v 0.111976 -0.566827 -0.562941
v 0.375330 0.518594 -0.978059
v 0.349935 0.325462 -0.844817
v 0.335201 0.177806 -0.809247
v 0.288552 0.020960 -0.696626
v 0.212255 -0.117939 -0.512428
v 0.139085 -0.210195 -0.335781
v 0.219649 -0.566827 -0.530279
v 0.544895 0.518594 -0.880230
v 0.508027 0.325462 -0.760315
v 0.486637 0.177806 -0.728303
v 0.418913 0.020960 -0.626947
v 0.308146 -0.117939 -0.461173
v 0.201920 -0.210195 -0.302195
v 0.318881 -0.566827 -0.477239
v 0.693518 0.518592 -0.748571
v 0.646595 0.325462 -0.646595
v 0.619371 0.177806 -0.619371
v 0.533175 0.020960 -0.533174
v 0.392196 -0.117939 -0.392195
v 0.256996 -0.210195 -0.256995
v 0.405858 -0.566827 -0.405858
v 0.815421 0.518530 -0.588099
v 0.760316 0.325462 -0.508026
v 0.728304 0.177806 -0.486637
v 0.626947 0.020960 -0.418912
v 0.461173 -0.117938 -0.308146
v 0.302195 -0.210195 -0.201920
v 0.477239 -0.566827 -0.318881
v 0.905896 0.518408 -0.405021
v 0.844817 0.325462 -0.349935
v 0.809248 0.177806 -0.335201
v 0.696626 0.020960 -0.288552
v 0.512428 -0.117938 -0.212254
v 0.335781 -0.210195 -0.139085
v 0.530279 -0.566827 -0.219649
v 0.961536 0.518288 -0.206444
v 0.896853 0.325462 -0.178395
v 0.859092 0.177806 -0.170884
v 0.739534 0.020960 -0.147102
v 0.543991 -0.117938 -0.108206
v 0.356463 -0.210195 -0.070905
v 0.562942 -0.566827 -0.111976
v 0.980307 0.518239 0.000000
v 0.914424 0.325462 0.000000
v 0.875923 0.177806 0.000000
v 0.754023 0.020960 0.000000
v 0.554648 -0.117938 0.000000
v 0.363447 -0.210195 0.000000
v 0.573970 -0.566827 0.000000
v 0.961536 0.518288 0.206445
v 0.896853 0.325462 0.178395
v 0.859092 0.177806 0.170884
v 0.739534 0.020960 0.147103
v 0.543991 -0.117938 0.108207
v 0.356463 -0.210195 0.070905
v 0.562942 -0.566827 0.111976
v 0.905895 0.518408 0.405022
v 0.844817 0.325462 0.349935
v 0.809247 0.177806 0.335202
v 0.696626 0.020960 0.288552
v 0.512428 -0.117938 0.212255
v 0.335781 -0.210195 0.139085
v 0.530279 -0.566827 0.219649
v 0.815421 0.518530 0.588099
v 0.760315 0.325462 0.508027
v 0.728303 0.177806 0.486637
v 0.626947 0.020960 0.418913
v 0.461173 -0.117938 0.308146
v 0.302195 -0.210195 0.201920
v 0.477239 -0.566827 0.318881
v 0.693518 0.518592 0.748572
v 0.646595 0.325462 0.646595
v 0.619371 0.177806 0.619371
v 0.533174 0.020960 0.533175
v 0.392195 -0.117938 0.392196
v 0.256996 -0.210195 0.256996
v 0.405858 -0.566827 0.405859
v 0.544895 0.518594 0.880230
v 0.508027 0.325462 0.760316
v 0.486637 0.177806 0.728304
v 0.418912 0.020960 0.626947
v 0.308146 -0.117938 0.461173
v 0.201920 -0.210195 0.302195
v 0.318881 -0.566827 0.477239
v 0.375330 0.518594 0.978059
v 0.349935 0.325462 0.844817
v 0.335201 0.177806 0.809248
v 0.288552 0.020960 0.696626
v 0.212255 -0.117938 0.512428
v 0.139085 -0.210195 0.335781
v 0.219649 -0.566827 0.530280
v 0.191342 0.518594 1.038302
v 0.178395 0.325462 0.896853
v 0.170884 0.177806 0.859093
v 0.147102 0.020960 0.739534
v 0.108206 -0.117938 0.543991
v 0.070905 -0.210195 0.356463
v 0.111976 -0.566827 0.562942
v -0.000000 0.518594 1.058644
v 0.000000 0.325462 0.914424
v -0.000000 0.177806 0.875923
v -0.000000 0.020960 0.754023
v -0.000000 -0.117938 0.554648
v 0.000000 -0.210195 0.363447
v -0.000000 -0.566827 0.573971
v -0.191342 0.518594 1.038302
v -0.178395 0.325462 0.896853
v -0.170884 0.177806 0.859092
v -0.147103 0.020960 0.739534
v -0.108206 -0.117938 0.543991
v -0.070905 -0.210195 0.356463
v -0.111976 -0.566827 0.562942
v -0.375330 0.518594 0.978059
v -0.349935 0.325462 0.844817
v -0.335201 0.177806 0.809247
v -0.288552 0.020960 0.696626
v -0.212255 -0.117938 0.512428
v -0.139085 -0.210195 0.335781
v -0.219649 -0.566827 0.530280
v -0.544895 0.518594 0.880230
v -0.508026 0.325462 0.760316
v -0.486637 0.177806 0.728303
v -0.418912 0.020960 0.626947
v -0.308146 -0.117938 0.461173
v -0.201920 -0.210195 0.302195
v -0.318881 -0.566827 0.477239
v -0.693517 0.518592 0.748572
v -0.646595 0.325462 0.646595
v -0.619371 0.177806 0.619371
v -0.533174 0.020960 0.533175
v -0.392195 -0.117938 0.392196
v -0.256995 -0.210195 0.256996
v -0.405858 -0.566827 0.405858
v -0.815421 0.518530 0.588099
v -0.760315 0.325462 0.508027
v -0.728303 0.177806 0.486637
v -0.626947 0.020960 0.418913
v -0.461173 -0.117939 0.308146
v -0.302195 -0.210195 0.201920
v -0.477239 -0.566827 0.318881
v -0.905895 0.518408 0.405022
v -0.844817 0.325462 0.349935
v -0.809247 0.177806 0.335201
v -0.696626 0.020960 0.288552
v -0.512428 -0.117939 0.212255
v -0.335781 -0.210195 0.139085
v -0.530279 -0.566827 0.219649
v -0.961535 0.518288 0.206444
v -0.896853 0.325462 0.178395
v -0.859092 0.177806 0.170884
v -0.739534 0.020960 0.147103
v -0.543991 -0.117939 0.108207
v -0.356463 -0.210195 0.070905
v -0.562941 -0.566827 0.111976
v -0.980306 0.518239 0.000000
v -0.914423 0.325462 0.000000
v -0.875923 0.177806 0.000000
v -0.754022 0.020960 0.000000
v -0.554648 -0.117939 0.000000
v -0.363446 -0.210195 0.000000
v -0.573970 -0.566827 0.000000
v -0.961535 0.518288 -0.206444
v -0.896853 0.325462 -0.178395
v -0.859092 0.177806 -0.170884
v -0.739534 0.020960 -0.147102
v -0.543990 -0.117939 -0.108206
v -0.356463 -0.210195 -0.070905
v -0.562941 -0.566827 -0.111976
v -0.905895 0.518408 -0.405021
v -0.844817 0.325462 -0.349934
v -0.809247 0.177806 -0.335201
v -0.696626 0.020960 -0.288552
v -0.512428 -0.117939 -0.212254
v -0.335781 -0.210195 -0.139085
v -0.530279 -0.566827 -0.219648
v -0.815420 0.518530 -0.588098
v -0.760315 0.325462 -0.508026
v -0.728303 0.177806 -0.486636
v -0.626947 0.020960 -0.418912
v -0.461173 -0.117939 -0.308146
v -0.302195 -0.210195 -0.201920
v -0.477239 -0.566827 -0.318880
v -0.693517 0.518592 -0.748571
v -0.646595 0.325462 -0.646595
v -0.619371 0.177806 -0.619371
v -0.533174 0.020960 -0.533174
v -0.392195 -0.117939 -0.392195
v -0.256995 -0.210195 -0.256995
v -0.405858 -0.566827 -0.405858
v -0.544895 0.518594 -0.880229
v -0.508026 0.325462 -0.760315
v -0.486636 0.177806 -0.728303
v -0.418912 0.020960 -0.626946
v -0.308146 -0.117938 -0.461173
v -0.201920 -0.210195 -0.302194
v -0.318881 -0.566827 -0.477238
v -0.375330 0.518594 -0.978058
v -0.349935 0.325462 -0.844817
v -0.335201 0.177806 -0.809247
v -0.288552 0.020960 -0.696626
v -0.212254 -0.117938 -0.512428
v -0.139085 -0.210195 -0.335780
v -0.219649 -0.566827 -0.530279
v -0.191341 0.518594 -1.038301
v -0.178395 0.325462 -0.896853
v -0.170884 0.177806 -0.859092
v -0.147102 0.020960 -0.739534
v -0.108206 -0.117938 -0.543990
v -0.070905 -0.210195 -0.356463
v -0.111976 -0.566827 -0.562941
v 0.000000 0.518594 -1.058643
v 0.000000 0.325462 -0.914423
v 0.000000 0.177806 -0.875922
v 0.000000 0.020960 -0.754022
v 0.000000 -0.117938 -0.554648
v 0.000000 -0.210195 -0.363446
v -0.000000 -0.566827 -0.573970
v 0.088233 -0.165651 -0.443576
v 0.173075 -0.165651 -0.417839
v 0.251266 -0.165651 -0.376045
v 0.319801 -0.165651 -0.319800
v 0.376046 -0.165651 -0.251265
v 0.417840 -0.165651 -0.173075
v 0.443576 -0.165651 -0.088232
v 0.452266 -0.165651 0.000000
v 0.443576 -0.165651 0.088233
v 0.417839 -0.165651 0.173075
v 0.376046 -0.165651 0.251266
v 0.319800 -0.165651 0.319801
v 0.251266 -0.165651 0.376046
v 0.173075 -0.165651 0.417840
v 0.088233 -0.165651 0.443576
v 0.000000 -0.165651 0.452266
v -0.088233 -0.165651 0.443576
v -0.173075 -0.165651 0.417840
v -0.251266 -0.165651 0.376046
v -0.319800 -0.165651 0.319801
v -0.376045 -0.165651 0.251266
v -0.417839 -0.165651 0.173075
v -0.443576 -0.165651 0.088233
v -0.452266 -0.165651 0.000000
v -0.443576 -0.165651 -0.088232
v -0.417839 -0.165651 -0.173074
v -0.376045 -0.165651 -0.251265
v -0.319800 -0.165651 -0.319800
v -0.251265 -0.165651 -0.376045
v -0.173075 -0.165651 -0.417839
v -0.088233 -0.165651 -0.443575
v 0.000000 -0.165651 -0.452266
v 0.070905 -0.210195 -0.356463
v 0.139085 -0.210195 -0.335781
v 0.201920 -0.210195 -0.302195
v 0.256996 -0.210195 -0.256995
v 0.302195 -0.210195 -0.201920
v 0.335781 -0.210195 -0.139085
v 0.356463 -0.210195 -0.070905
v 0.363447 -0.210195 0.000000
v 0.356463 -0.210195 0.070905
v 0.335781 -0.210195 0.139085
v 0.302195 -0.210195 0.201920
v 0.256996 -0.210195 0.256996
v 0.201920 -0.210195 0.302195
v 0.139085 -0.210195 0.335781
v 0.070905 -0.210195 0.356463
v 0.000000 -0.210195 0.363447
v -0.070905 -0.210195 0.356463
v -0.139085 -0.210195 0.335781
v -0.201920 -0.210195 0.302195
v -0.256995 -0.210195 0.256996
v -0.302195 -0.210195 0.201920
v -0.335781 -0.210195 0.139085
v -0.356463 -0.210195 0.070905
v -0.363446 -0.210195 0.000000
v -0.356463 -0.210195 -0.070905
v -0.335781 -0.210195 -0.139085
v -0.302195 -0.210195 -0.201920
v -0.256995 -0.210195 -0.256995
v -0.201920 -0.210195 -0.302194
v -0.139085 -0.210195 -0.335780
v -0.070905 -0.210195 -0.356463
v 0.000000 -0.210195 -0.363446
vn 0.0820 -0.5944 -0.8000
vn 0.0949 -0.2512 -0.9633
vn 0.0775 -0.6118 -0.7872
vn 0.0562 -0.8192 -0.5707
vn 0.0416 -0.9056 -0.4220
vn 0.0000 -1.0000 0.0000
vn 0.2458 -0.5779 -0.7783
vn 0.2810 -0.2512 -0.9263
vn 0.2296 -0.6118 -0.7569
vn 0.1665 -0.8192 -0.5488
vn 0.1231 -0.9056 -0.4058
vn 0.3729 -0.6118 -0.6976
vn 0.2703 -0.8192 -0.5058
vn 0.1999 -0.9056 -0.3740
vn 0.0000 0.0000 1.0000
vn 0.4075 -0.5456 -0.7323
vn 0.4563 -0.2512 -0.8536
vn 0.5625 -0.5002 -0.6583
vn 0.6141 -0.2512 -0.7482
vn 0.5018 -0.6118 -0.6115
vn 0.3638 -0.8192 -0.4433
vn 0.2690 -0.9056 -0.3278
vn 0.4433 -0.8192 -0.3638
vn 0.3278 -0.9056 -0.2690
vn 0.7027 -0.4467 -0.5538
vn 0.7482 -0.2512 -0.6141
vn 0.6115 -0.6118 -0.5018
vn 0.8181 -0.3932 -0.4197
vn 0.8536 -0.2512 -0.4563
vn 0.6976 -0.6118 -0.3729
vn 0.5058 -0.8192 -0.2703
vn 0.3740 -0.9056 -0.1999
vn 0.5488 -0.8192 -0.1665
vn 0.4058 -0.9056 -0.1231
vn 0.8995 -0.3497 -0.2618
vn 0.9263 -0.2512 -0.2810
vn 0.7569 -0.6118 -0.2296
vn 0.9414 -0.3252 -0.0889
vn 0.9633 -0.2512 -0.0949
vn 0.7872 -0.6118 -0.0775
vn 0.5707 -0.8192 -0.0562
vn 0.4220 -0.9056 -0.0416
vn 0.4220 -0.9056 0.0416
vn 0.9414 -0.3252 0.0889
vn 0.9633 -0.2512 0.0949
vn 0.7872 -0.6118 0.0775
vn 0.5707 -0.8192 0.0562
vn 0.8995 -0.3497 0.2618
vn 0.9263 -0.2512 0.2810
vn 0.7569 -0.6118 0.2296
vn 0.5488 -0.8192 0.1665
vn 0.4058 -0.9056 0.1231
vn 0.3740 -0.9056 0.1999
vn 0.8181 -0.3932 0.4197
vn 0.8536 -0.2512 0.4563
vn 0.6976 -0.6118 0.3729
vn 0.5058 -0.8192 0.2703
vn 0.7482 -0.2512 0.6141
vn 0.6115 -0.6118 0.5018
vn 0.4433 -0.8192 0.3638
vn 0.3278 -0.9056 0.2690
vn 0.7027 -0.4467 0.5538
vn 0.5625 -0.5002 0.6583
vn 0.6141 -0.2512 0.7482
vn 0.5018 -0.6118 0.6115
vn 0.3638 -0.8192 0.4433
vn 0.2690 -0.9056 0.3278
vn 0.3729 -0.6118 0.6976
vn 0.2703 -0.8192 0.5058
vn 0.1999 -0.9056 0.3740
vn 0.4075 -0.5456 0.7323
vn 0.4563 -0.2512 0.8536
vn 0.2458 -0.5779 0.7783
vn 0.2810 -0.2512 0.9263
vn 0.2296 -0.6118 0.7569
vn 0.1665 -0.8192 0.5488
vn 0.1231 -0.9056 0.4058
vn 0.0775 -0.6118 0.7872
vn 0.0562 -0.8192 0.5707
vn 0.0416 -0.9056 0.4220
vn 0.0820 -0.5944 0.8000
vn 0.0949 -0.2512 0.9633
vn -0.0820 -0.5944 0.8000
vn -0.0949 -0.2512 0.9633
vn -0.0775 -0.6118 0.7872
vn -0.0562 -0.8192 0.5707
vn -0.0416 -0.9056 0.4220
vn -0.1665 -0.8192 0.5488
vn -0.1231 -0.9056 0.4058
vn -0.2458 -0.5779 0.7783
vn -0.2810 -0.2512 0.9263
vn -0.2296 -0.6118 0.7569
vn -0.4075 -0.5456 0.7323
vn -0.4563 -0.2512 0.8536
vn -0.3729 -0.6118 0.6976
vn -0.2703 -0.8192 0.5058
vn -0.1999 -0.9056 0.3740
vn -0.3638 -0.8192 0.4433
vn -0.2690 -0.9056 0.3278
vn -0.5625 -0.5002 0.6583
vn -0.6141 -0.2512 0.7482
vn -0.5018 -0.6118 0.6115
vn -0.7027 -0.4467 0.5538
vn -0.7482 -0.2512 0.6141
vn -0.6115 -0.6118 0.5018
vn -0.4433 -0.8192 0.3638
vn -0.3278 -0.9056 0.2690
vn -0.3740 -0.9056 0.1999
vn -0.8181 -0.3932 0.4197
vn -0.8536 -0.2512 0.4563
vn -0.6976 -0.6118 0.3729
vn -0.5058 -0.8192 0.2703
vn -0.9263 -0.2512 0.2810
vn -0.7569 -0.6118 0.2296
vn -0.5488 -0.8192 0.1665
vn -0.4058 -0.9056 0.1231
vn -0.8995 -0.3497 0.2618
vn -0.9414 -0.3252 0.0889
vn -0.9633 -0.2512 0.0949
vn -0.7872 -0.6118 0.0775
vn -0.5707 -0.8192 0.0562
vn -0.4220 -0.9056 0.0416
vn -0.9633 -0.2512 -0.0949
vn -0.7872 -0.6118 -0.0775
vn -0.5707 -0.8192 -0.0562
vn -0.4220 -0.9056 -0.0416
vn -0.9414 -0.3252 -0.0889
vn -0.8995 -0.3497 -0.2618
vn -0.9263 -0.2512 -0.2810
vn -0.7569 -0.6118 -0.2296
vn -0.5488 -0.8192 -0.1665
vn -0.4058 -0.9056 -0.1231
vn -0.6976 -0.6118 -0.3729
vn -0.5058 -0.8192 -0.2703
vn -0.3740 -0.9056 -0.1999
vn -0.8181 -0.3932 -0.4197
vn -0.8536 -0.2512 -0.4563
vn -0.7027 -0.4467 -0.5538
vn -0.7482 -0.2512 -0.6141
vn -0.6115 -0.6118 -0.5018
vn -0.4433 -0.8192 -0.3638
vn -0.3278 -0.9056 -0.2690
vn -0.5018 -0.6118 -0.6115
vn -0.3638 -0.8192 -0.4433
vn -0.2690 -0.9056 -0.3278
vn 0.0000 0.9399 -0.3413
vn -0.5625 -0.5002 -0.6583
vn -0.6141 -0.2512 -0.7482
vn -0.4075 -0.5456 -0.7323
vn -0.4563 -0.2512 -0.8536
vn -0.3729 -0.6118 -0.6976
vn -0.2703 -0.8192 -0.5058
vn -0.1999 -0.9056 -0.3740
vn 0.0000 1.0000 0.0000
vn -0.1665 -0.8192 -0.5488
vn -0.1231 -0.9056 -0.4058
vn -0.2458 -0.5778 -0.7783
vn -0.2810 -0.2512 -0.9263
vn -0.2296 -0.6118 -0.7569
vn -0.0820 -0.5944 -0.8000
vn -0.0949 -0.2512 -0.9633
vn -0.0775 -0.6118 -0.7872
vn -0.0562 -0.8192 -0.5707
vn -0.0416 -0.9056 -0.4220
vn -0.0441 -0.8930 -0.4479
vn -0.1306 -0.8930 -0.4306
vn -0.2121 -0.8930 -0.3969
vn -0.2855 -0.8930 -0.3479
vn -0.3479 -0.8930 -0.2855
vn -0.3969 -0.8930 -0.2121
vn -0.4306 -0.8930 -0.1306
vn -0.4479 -0.8930 -0.0441
vn -0.4479 -0.8930 0.0441
vn -0.4306 -0.8930 0.1306
vn -0.3969 -0.8930 0.2121
vn -0.3479 -0.8930 0.2855
vn -0.2855 -0.8930 0.3479
vn -0.2121 -0.8930 0.3969
vn -0.1306 -0.8930 0.4306
vn -0.0441 -0.8930 0.4479
vn 0.0441 -0.8930 0.4479
vn 0.1306 -0.8930 0.4306
vn 0.2121 -0.8930 0.3969
vn 0.2855 -0.8930 0.3479
vn 0.3479 -0.8930 0.2855
vn 0.3969 -0.8930 0.2121
vn 0.4306 -0.8930 0.1306
vn 0.4479 -0.8930 0.0441
vn 0.4479 -0.8930 -0.0441
vn 0.4306 -0.8930 -0.1306
vn 0.3969 -0.8930 -0.2121
vn 0.3479 -0.8930 -0.2855
vn 0.2855 -0.8930 -0.3479
vn 0.2121 -0.8930 -0.3969
vn 0.1306 -0.8930 -0.4306
vn 0.0441 -0.8930 -0.4479
vn -0.0845 0.5065 -0.8581
vn -0.2503 0.5065 -0.8251
vn -0.4064 0.5065 -0.7604
vn -0.5470 0.5065 -0.6665
vn -0.6665 0.5065 -0.5470
vn -0.7604 0.5065 -0.4064
vn -0.8251 0.5065 -0.2503
vn -0.8581 0.5065 -0.0845
vn -0.8581 0.5065 0.0845
vn -0.8251 0.5065 0.2503
vn -0.7604 0.5065 0.4064
vn -0.6665 0.5065 0.5470
vn -0.5470 0.5065 0.6665
vn -0.4065 0.5065 0.7604
vn -0.2503 0.5065 0.8251
vn -0.0845 0.5065 0.8581
vn 0.0845 0.5065 0.8581
vn 0.2503 0.5065 0.8251
vn 0.4064 0.5065 0.7604
vn 0.5470 0.5065 0.6665
vn 0.6665 0.5065 0.5470
vn 0.7604 0.5065 0.4064
vn 0.8251 0.5065 0.2503
vn 0.8581 0.5065 0.0845
vn 0.8581 0.5065 -0.0845
vn 0.8251 0.5065 -0.2503
vn 0.7604 0.5065 -0.4064
vn 0.6665 0.5065 -0.5470
vn 0.5470 0.5065 -0.6665
vn 0.4064 0.5065 -0.7604
vn 0.2503 0.5065 -0.8251
vn 0.0845 0.5065 -0.8581
usemtl None
s off
f 219//1 218//1 1//1 2//1
f 220//2 219//2 2//2 3//2
f 221//3 220//3 3//3 4//3
f 222//4 221//4 4//4 5//4
f 256//5 222//5 5//5 225//5
f 288//6 223//6 6//6 257//6
f 257//6 6//6 13//6 258//6
f 2//7 1//7 8//7 9//7
f 3//8 2//8 9//8 10//8
f 4//9 3//9 10//9 11//9
f 5//10 4//10 11//10 12//10
f 225//11 5//11 12//11 226//11
f 11//12 10//12 17//12 18//12
f 12//13 11//13 18//13 19//13
f 226//14 12//14 19//14 227//14
f 258//15 13//15 20//15 259//15
f 9//16 8//16 15//16 16//16
f 10//17 9//17 16//17 17//17
f 16//18 15//18 22//18 23//18
f 17//19 16//19 23//19 24//19
f 18//20 17//20 24//20 25//20
f 19//21 18//21 25//21 26//21
f 227//22 19//22 26//22 228//22
f 259//15 20//15 27//15 260//15
f 26//23 25//23 32//23 33//23
f 228//24 26//24 33//24 229//24
f 260//15 27//15 34//15 261//15
f 23//25 22//25 29//25 30//25
f 24//26 23//26 30//26 31//26
f 25//27 24//27 31//27 32//27
f 30//28 29//28 36//28 37//28
f 31//29 30//29 37//29 38//29
f 32//30 31//30 38//30 39//30
f 33//31 32//31 39//31 40//31
f 229//32 33//32 40//32 230//32
f 261//15 34//15 41//15 262//15
f 40//33 39//33 46//33 47//33
f 230//34 40//34 47//34 231//34
f 262//15 41//15 48//15 263//15
f 37//35 36//35 43//35 44//35
f 38//36 37//36 44//36 45//36
f 39//37 38//37 45//37 46//37
f 44//38 43//38 50//38 51//38
f 45//39 44//39 51//39 52//39
f 46//40 45//40 52//40 53//40
f 47//41 46//41 53//41 54//41
f 231//42 47//42 54//42 232//42
f 263//15 48//15 55//15 264//15
f 232//43 54//43 61//43 233//43
f 264//15 55//15 62//15 265//15
f 51//44 50//44 57//44 58//44
f 52//45 51//45 58//45 59//45
f 53//46 52//46 59//46 60//46
f 54//47 53//47 60//47 61//47
f 58//48 57//48 64//48 65//48
f 59//49 58//49 65//49 66//49
f 60//50 59//50 66//50 67//50
f 61//51 60//51 67//51 68//51
f 233//52 61//52 68//52 234//52
f 265//15 62//15 69//15 266//15
f 234//53 68//53 75//53 235//53
f 266//15 69//15 76//15 267//15
f 65//54 64//54 71//54 72//54
f 66//55 65//55 72//55 73//55
f 67//56 66//56 73//56 74//56
f 68//57 67//57 74//57 75//57
f 73//58 72//58 79//58 80//58
f 74//59 73//59 80//59 81//59
f 75//60 74//60 81//60 82//60
f 235//61 75//61 82//61 236//61
f 267//15 76//15 83//15 268//15
f 72//62 71//62 78//62 79//62
f 268//15 83//15 90//15 269//15
f 79//63 78//63 85//63 86//63
f 80//64 79//64 86//64 87//64
f 81//65 80//65 87//65 88//65
f 82//66 81//66 88//66 89//66
f 236//67 82//67 89//67 237//67
f 88//68 87//68 94//68 95//68
f 89//69 88//69 95//69 96//69
f 237//70 89//70 96//70 238//70
f 269//15 90//15 97//15 270//15
f 86//71 85//71 92//71 93//71
f 87//72 86//72 93//72 94//72
f 93//73 92//73 99//73 100//73
f 94//74 93//74 100//74 101//74
f 95//75 94//75 101//75 102//75
f 96//76 95//76 102//76 103//76
f 238//77 96//77 103//77 239//77
f 270//15 97//15 104//15 271//15
f 102//78 101//78 108//78 109//78
f 103//79 102//79 109//79 110//79
f 239//80 103//80 110//80 240//80
f 271//15 104//15 111//15 272//15
f 100//81 99//81 106//81 107//81
f 101//82 100//82 107//82 108//82
f 107//83 106//83 113//83 114//83
f 108//84 107//84 114//84 115//84
f 109//85 108//85 115//85 116//85
f 110//86 109//86 116//86 117//86
f 240//87 110//87 117//87 241//87
f 272//15 111//15 118//15 273//15
f 117//88 116//88 123//88 124//88
f 241//89 117//89 124//89 242//89
f 273//15 118//15 125//15 274//15
f 114//90 113//90 120//90 121//90
f 115//91 114//91 121//91 122//91
f 116//92 115//92 122//92 123//92
f 121//93 120//93 127//93 128//93
f 122//94 121//94 128//94 129//94
f 123//95 122//95 129//95 130//95
f 124//96 123//96 130//96 131//96
f 242//97 124//97 131//97 243//97
f 274//15 125//15 132//15 275//15
f 131//98 130//98 137//98 138//98
f 243//99 131//99 138//99 244//99
f 275//15 132//15 139//15 276//15
f 128//100 127//100 134//100 135//100
f 129//101 128//101 135//101 136//101
f 130//102 129//102 136//102 137//102
f 135//103 134//103 141//103 142//103
f 136//104 135//104 142//104 143//104
f 137//105 136//105 143//105 144//105
f 138//106 137//106 144//106 145//106
f 244//107 138//107 145//107 245//107
f 276//15 139//15 146//15 277//15
f 245//108 145//108 152//108 246//108
f 277//15 146//15 153//15 278//15
f 142//109 141//109 148//109 149//109
f 143//110 142//110 149//110 150//110
f 144//111 143//111 150//111 151//111
f 145//112 144//112 151//112 152//112
f 150//113 149//113 156//113 157//113
f 151//114 150//114 157//114 158//114
f 152//115 151//115 158//115 159//115
f 246//116 152//116 159//116 247//116
f 278//15 153//15 160//15 279//15
f 149//117 148//117 155//117 156//117
f 279//15 160//15 167//15 280//15
f 156//118 155//118 162//118 163//118
f 157//119 156//119 163//119 164//119
f 158//120 157//120 164//120 165//120
f 159//121 158//121 165//121 166//121
f 247//122 159//122 166//122 248//122
f 164//123 163//123 170//123 171//123
f 165//124 164//124 171//124 172//124
f 166//125 165//125 172//125 173//125
f 248//126 166//126 173//126 249//126
f 280//15 167//15 174//15 281//15
f 163//127 162//127 169//127 170//127
f 281//15 174//15 181//15 282//15
f 170//128 169//128 176//128 177//128
f 171//129 170//129 177//129 178//129
f 172//130 171//130 178//130 179//130
f 173//131 172//131 179//131 180//131
f 249//132 173//132 180//132 250//132
f 179//133 178//133 185//133 186//133
f 180//134 179//134 186//134 187//134
f 250//135 180//135 187//135 251//135
f 282//15 181//15 188//15 283//15
f 177//136 176//136 183//136 184//136
f 178//137 177//137 184//137 185//137
f 184//138 183//138 190//138 191//138
f 185//139 184//139 191//139 192//139
f 186//140 185//140 192//140 193//140
f 187//141 186//141 193//141 194//141
f 251//142 187//142 194//142 252//142
f 283//15 188//15 195//15 284//15
f 193//143 192//143 199//143 200//143
f 194//144 193//144 200//144 201//144
f 252//145 194//145 201//145 253//145
f 284//146 195//146 202//146 285//146
f 191//147 190//147 197//147 198//147
f 192//148 191//148 198//148 199//148
f 198//149 197//149 204//149 205//149
f 199//150 198//150 205//150 206//150
f 200//151 199//151 206//151 207//151
f 201//152 200//152 207//152 208//152
f 253//153 201//153 208//153 254//153
f 285//154 202//154 209//154 286//154
f 208//155 207//155 214//155 215//155
f 254//156 208//156 215//156 255//156
f 286//15 209//15 216//15 287//15
f 205//157 204//157 211//157 212//157
f 206//158 205//158 212//158 213//158
f 207//159 206//159 213//159 214//159
f 212//160 211//160 218//160 219//160
f 213//161 212//161 219//161 220//161
f 214//162 213//162 220//162 221//162
f 215//163 214//163 221//163 222//163
f 255//164 215//164 222//164 256//164
f 287//15 216//15 223//15 288//15
f 216//165 255//165 256//165 223//165
f 209//166 254//166 255//166 216//166
f 202//167 253//167 254//167 209//167
f 195//168 252//168 253//168 202//168
f 188//169 251//169 252//169 195//169
f 181//170 250//170 251//170 188//170
f 174//171 249//171 250//171 181//171
f 167//172 248//172 249//172 174//172
f 160//173 247//173 248//173 167//173
f 153//174 246//174 247//174 160//174
f 146//175 245//175 246//175 153//175
f 139//176 244//176 245//176 146//176
f 132//177 243//177 244//177 139//177
f 125//178 242//178 243//178 132//178
f 118//179 241//179 242//179 125//179
f 111//180 240//180 241//180 118//180
f 104//181 239//181 240//181 111//181
f 97//182 238//182 239//182 104//182
f 90//183 237//183 238//183 97//183
f 83//184 236//184 237//184 90//184
f 76//185 235//185 236//185 83//185
f 69//186 234//186 235//186 76//186
f 62//187 233//187 234//187 69//187
f 55//188 232//188 233//188 62//188
f 48//189 231//189 232//189 55//189
f 41//190 230//190 231//190 48//190
f 34//191 229//191 230//191 41//191
f 27//192 228//192 229//192 34//192
f 20//193 227//193 228//193 27//193
f 13//194 226//194 227//194 20//194
f 6//195 225//195 226//195 13//195
f 223//196 256//196 225//196 6//196
f 217//197 287//197 288//197 224//197
f 210//198 286//198 287//198 217//198
f 203//199 285//199 286//199 210//199
f 196//200 284//200 285//200 203//200
f 189//201 283//201 284//201 196//201
f 182//202 282//202 283//202 189//202
f 175//203 281//203 282//203 182//203
f 168//204 280//204 281//204 175//204
f 161//205 279//205 280//205 168//205
f 154//206 278//206 279//206 161//206
f 147//207 277//207 278//207 154//207
f 140//208 276//208 277//208 147//208
f 133//209 275//209 276//209 140//209
f 126//210 274//210 275//210 133//210
f 119//211 273//211 274//211 126//211
f 112//212 272//212 273//212 119//212
f 105//213 271//213 272//213 112//213
f 98//214 270//214 271//214 105//214
f 91//215 269//215 270//215 98//215
f 84//216 268//216 269//216 91//216
f 77//217 267//217 268//217 84//217
f 70//218 266//218 267//218 77//218
f 63//219 265//219 266//219 70//219
f 56//220 264//220 265//220 63//220
f 49//221 263//221 264//221 56//221
f 42//222 262//222 263//222 49//222
f 35//223 261//223 262//223 42//223
f 28//224 260//224 261//224 35//224
f 21//225 259//225 260//225 28//225
f 14//226 258//226 259//226 21//226
f 7//227 257//227 258//227 14//227
f 224//228 288//228 257//228 7//228
f 287//154 286//154 285//154 284//154 283//154 282//154 281//154 280//154 279//154 278//154 277//154 276//154 275//154 274//154 273//154 272//154 271//154 270//154 269//154 268//154 267//154 266//154 265//154 264//154 263//154 262//154 261//154 260//154 259//154 258//154 257//154 288//154
